<svg width="29" height="34" fill="none" xmlns="http://www.w3.org/2000/svg"><path d="M3.391 33.1H25.99a.442.442 0 00.442-.442v-3.234a.442.442 0 00-.442-.441H3.391a.442.442 0 00-.442.441v3.234c0 .244.198.442.442.442zm22.156-3.234v2.35H3.833v-2.35h21.714z" fill="#3E3E3F" stroke="#3E3E3F" stroke-width=".2"/><path d="M4.683 29.866h20.015a.442.442 0 100-.883H5.125v-2.35h19.131v1.175a.442.442 0 00.884 0V26.19a.442.442 0 00-.442-.442H4.683a.442.442 0 00-.442.442v3.233c0 .245.198.442.442.442zm9.398-5.811l-1.914-2.723 1.914 2.723zm0 0a.442.442 0 00.362.188m-.362-.188l.362.188m0 0a.44.44 0 00.361-.188l-.361.188zm2.276-2.911a.442.442 0 00.08-.254v-3.684a.442.442 0 10-.884 0v3.544l-1.472 2.095-1.473-2.095v-6.945l3.667 7.281m.082.058l-.082-.058m.082.058h0l-.082-.058m.082.058l-1.915 2.723-.082-.058 1.915-2.723m-2.194 1.932l.06-.087h-.121l.06.087zm1.915-6.971a.579.579 0 100-1.157.579.579 0 000 1.157zm-5.693 8.691h0a.44.44 0 00.623-.057l-.077-.064.077.064a.442.442 0 00-.057-.622s0 0 0 0l-1.555-1.295.99 1.974zm0 0L9.11 23.631s0 0 0 0a.442.442 0 01-.056-.623l1.611 1.918zm-.989-1.974a.442.442 0 00-.622.056l.622-.056zm8.417 1.918h0a.442.442 0 01.056-.623s0 0 0 0l1.555-1.295h0a.442.442 0 01.623.056h0a.442.442 0 01-.057.623l-2.177 1.238zm0 0a.441.441 0 00.622.056s0 0 0 0l1.555-1.295-2.177 1.238zm-7.457-2.421h0l-.847-.846s0 0 0 0a.442.442 0 010-.625l.847 1.471zm0 0a.441.441 0 00.625 0h0m-.625 0h.625m0 0a.442.442 0 000-.625s0 0 0 0l-.847-.846m.847 1.47l-.847-1.47m0 0a.442.442 0 00-.625 0h.625zm7.706.846h0l.942-.94-.941.94zm0 0a.442.442 0 00.625.625s0 0 0 0l.941-.94h0a.442.442 0 000-.625h0m-1.565.94l1.566-.94m0 0a.442.442 0 00-.625 0h.625zm-7.999-6.892H17.2a.442.442 0 00.442-.441v-3.26a.442.442 0 00-.442-.442h-5.51a.442.442 0 00-.443.442v3.26c0 .244.198.441.442.441zm5.07-3.259v2.376H12.13v-2.376h4.627z" fill="#3E3E3F" stroke="#3E3E3F" stroke-width=".2"/><path d="M9.816 10.733h9.253a.442.442 0 00.442-.442s0 0 0 0v-5.73a.442.442 0 00-.442-.441H9.816a.442.442 0 00-.441.442v5.73c0 .243.197.441.441.441zm8.811-5.73V9.85h-8.369V5.004h8.37z" fill="#3E3E3F" stroke="#3E3E3F" stroke-width=".2"/><path d="M17.022 4.562a.442.442 0 00.884 0v-3.22A.442.442 0 0017.464.9h-6.042a.442.442 0 00-.441.442v1.61a.442.442 0 10.883 0V1.784h5.158v2.778zm9.24 2.04h1.778a.442.442 0 000-.883h-1.778a.442.442 0 100 .883z" fill="#3E3E3F" stroke="#3E3E3F" stroke-width=".2"/><path d="M26.709 7.05a.442.442 0 00.883 0V5.271a.442.442 0 00-.883 0v1.777zM3.635 17.308a1.331 1.331 0 101.331-1.331c-.734 0-1.33.597-1.33 1.331zm.884 0a.448.448 0 11.895.002.448.448 0 01-.895-.002zM1.342 6.602H3.12a.442.442 0 100-.883H1.342a.442.442 0 000 .883z" fill="#3E3E3F" stroke="#3E3E3F" stroke-width=".2"/><path d="M1.789 7.05a.442.442 0 00.883 0V5.271a.442.442 0 00-.883 0v1.777zm21.295 10.258a1.332 1.332 0 002.662.001c0-.735-.597-1.332-1.331-1.332s-1.33.598-1.33 1.331zm.884 0a.448.448 0 11.895.002.448.448 0 01-.895-.002z" fill="#3E3E3F" stroke="#3E3E3F" stroke-width=".2"/></svg>